<svg xmlns="http://www.w3.org/2000/svg" viewBox="0 0 290 80" role="img" aria-labelledby="title"><title id="title">Reachmark logo</title><g transform="translate(4 8)"><rect width="64" height="64" rx="18" fill="#d5f268"/><path fill="#20251f" fill-rule="evenodd" d="M17 48V16h16c9 0 14 4 14 11 0 5-3 9-8 11l10 10H37L26 36v12h-9Zm9-24v5h7c3 0 5-1 5-3s-2-2-5-2h-7Z"/><circle cx="49" cy="15" r="4" fill="#20251f"/></g><g fill="#20251f"><path d="M115.32350000000001 55.645Q111.7975 55.645 109.1315 54.1185Q106.4655 52.592 104.97125 49.882999999999996Q103.477 47.174 103.477 43.648Q103.477 39.8425 104.93900000000001 37.03675Q106.40100000000001 34.231 109.0025 32.683Q111.604 31.135 115.02250000000001 31.135Q118.6345 31.135 121.16075000000001 32.82275Q123.68700000000001 34.5105 124.91250000000001 37.585Q126.138 40.6595 125.837 44.8305H120.6985V42.938500000000005Q120.677 39.1545 119.3655 37.413Q118.054 35.6715 115.23750000000001 35.6715Q112.05550000000001 35.6715 110.50750000000001 37.63875Q108.9595 39.606 108.9595 43.39Q108.9595 46.916 110.50750000000001 48.851Q112.05550000000001 50.786 115.02250000000001 50.786Q116.936 50.786 118.32275000000001 49.93675Q119.7095 49.0875 120.462 47.475L125.57900000000001 49.023Q124.24600000000001 52.162 121.46175000000001 53.9035Q118.67750000000001 55.645 115.32350000000001 55.645ZM107.3255 44.8305V40.917500000000004H123.30000000000001V44.8305Z"/><path d="M135.746 55.645Q133.2305 55.645 131.489 54.68825Q129.7475 53.7315 128.85525 52.1405Q127.96300000000001 50.5495 127.96300000000001 48.636Q127.96300000000001 46.959 128.52200000000002 45.61525Q129.08100000000002 44.2715 130.24200000000002 43.29325Q131.40300000000002 42.315 133.252 41.691500000000005Q134.64950000000002 41.24 136.53075 40.8745Q138.412 40.509 140.61575 40.19725Q142.8195 39.8855 145.22750000000002 39.52L143.3785 40.5735Q143.4 38.1655 142.30349999999999 37.025999999999996Q141.207 35.8865 138.6055 35.8865Q137.036 35.8865 135.574 36.6175Q134.11200000000002 37.3485 133.5315 39.133L128.8015 37.6495Q129.66150000000002 34.704 132.08025000000004 32.9195Q134.49900000000002 31.135 138.6055 31.135Q141.7015 31.135 144.05575 32.145500000000006Q146.41 33.156000000000006 147.54950000000002 35.456500000000005Q148.173 36.682 148.30200000000002 37.96125Q148.431 39.2405 148.431 40.7455V55.0H143.8945V49.969L144.64700000000002 50.786Q143.07750000000001 53.3015 140.98125000000002 54.47325Q138.88500000000002 55.645 135.746 55.645ZM136.77800000000002 51.517Q138.541 51.517 139.788 50.8935Q141.035 50.27 141.77675 49.367000000000004Q142.51850000000002 48.464 142.7765 47.6685Q143.185 46.679500000000004 143.23875 45.40025Q143.29250000000002 44.121 143.29250000000002 43.325500000000005L144.8835 43.798500000000004Q142.54000000000002 44.164 140.863 44.4435Q139.186 44.723 137.98200000000003 44.97025Q136.77800000000002 45.2175 135.8535 45.5185Q134.9505 45.841 134.327 46.271Q133.70350000000002 46.701 133.37025 47.260000000000005Q133.037 47.819 133.037 48.5715Q133.037 49.4315 133.467 50.08725Q133.89700000000002 50.743 134.72475000000003 51.13Q135.5525 51.517 136.77800000000002 51.517Z"/><path d="M162.70450000000002 55.645Q159.11400000000003 55.645 156.57700000000003 54.04325Q154.04000000000002 52.4415 152.69625000000002 49.668Q151.35250000000002 46.8945 151.33100000000002 43.39Q151.35250000000002 39.821 152.73925000000003 37.05825Q154.126 34.295500000000004 156.6845 32.715250000000005Q159.24300000000002 31.135 162.769 31.135Q166.72500000000002 31.135 169.46625 33.12375Q172.2075 35.1125 173.04600000000002 38.5525L167.88600000000002 39.95Q167.28400000000002 38.0795 165.8865 37.03675Q164.489 35.994 162.70450000000002 35.994Q160.6835 35.994 159.372 36.95075Q158.06050000000002 37.9075 157.437 39.5845Q156.8135 41.2615 156.8135 43.39Q156.8135 46.701 158.29700000000003 48.7435Q159.78050000000002 50.786 162.70450000000002 50.786Q164.76850000000002 50.786 165.96175000000002 49.84Q167.15500000000003 48.894 167.757 47.1095L173.04600000000002 48.292Q171.971 51.8395 169.2835 53.74225Q166.596 55.645 162.70450000000002 55.645Z"/><path d="M192.02800000000002 55.0V43.82Q192.02800000000002 42.7235 191.8775 41.3905Q191.727 40.057500000000005 191.17875 38.821250000000006Q190.6305 37.585 189.54475000000002 36.789500000000004Q188.459 35.994 186.61 35.994Q185.621 35.994 184.6535 36.316500000000005Q183.686 36.639 182.90125 37.42375Q182.1165 38.2085 181.64350000000002 39.573750000000004Q181.1705 40.939 181.1705 43.0675L178.096 41.756Q178.096 38.789 179.24625 36.381Q180.3965 33.973 182.6325 32.54325Q184.8685 31.113500000000002 188.1365 31.113500000000002Q190.7165 31.113500000000002 192.39350000000002 31.9735Q194.0705 32.8335 195.0595 34.1665Q196.04850000000002 35.4995 196.5215 37.0045Q196.99450000000002 38.5095 197.13425 39.85325Q197.274 41.197 197.274 42.0355V55.0ZM175.92450000000002 55.0V24.040000000000003H180.547V40.337H181.1705V55.0Z"/><path d="M229.3495 55.0V40.896Q229.3495 38.5095 228.167 37.16575Q226.9845 35.822 224.9635 35.822Q223.7165 35.822 222.72750000000002 36.39175Q221.73850000000002 36.9615 221.15800000000002 38.06875Q220.57750000000001 39.176 220.57750000000001 40.7025L218.27700000000002 39.348Q218.2555 36.94 219.36275 35.101749999999996Q220.47 33.2635 222.36200000000002 32.2315Q224.25400000000002 31.1995 226.576 31.1995Q230.4245 31.1995 232.47775000000001 33.51075Q234.531 35.822 234.531 39.584500000000006V55.0ZM201.42100000000002 55.0V31.78H206.00050000000002V38.9825H206.6455V55.0ZM215.41750000000002 55.0V40.9605Q215.41750000000002 38.531000000000006 214.235 37.176500000000004Q213.0525 35.822 211.01000000000002 35.822Q209.032 35.822 207.83875 37.176500000000004Q206.6455 38.531000000000006 206.6455 40.7025L204.3235 39.1545Q204.3235 36.897000000000006 205.44150000000002 35.091Q206.5595 33.285 208.46225 32.24225Q210.365 31.1995 212.73000000000002 31.1995Q215.3315 31.1995 217.08375 32.30675Q218.836 33.414 219.70675 35.31675Q220.57750000000001 37.2195 220.57750000000001 39.606V55.0Z"/><path d="M245.214 55.645Q242.69850000000002 55.645 240.95700000000002 54.68825Q239.21550000000002 53.7315 238.32325000000003 52.1405Q237.431 50.5495 237.431 48.636Q237.431 46.959 237.99 45.61525Q238.549 44.2715 239.71 43.29325Q240.871 42.315 242.72 41.691500000000005Q244.1175 41.24 245.99875000000003 40.8745Q247.88000000000002 40.509 250.08375 40.19725Q252.28750000000002 39.8855 254.6955 39.52L252.84650000000002 40.5735Q252.86800000000002 38.1655 251.7715 37.025999999999996Q250.675 35.8865 248.07350000000002 35.8865Q246.50400000000002 35.8865 245.04200000000003 36.6175Q243.58 37.3485 242.9995 39.133L238.26950000000002 37.6495Q239.1295 34.704 241.54825 32.9195Q243.967 31.135 248.07350000000002 31.135Q251.1695 31.135 253.52375 32.145500000000006Q255.87800000000001 33.156000000000006 257.01750000000004 35.456500000000005Q257.641 36.682 257.77 37.96125Q257.899 39.2405 257.899 40.7455V55.0H253.3625V49.969L254.115 50.786Q252.5455 53.3015 250.44925 54.47325Q248.353 55.645 245.214 55.645ZM246.246 51.517Q248.00900000000001 51.517 249.25600000000003 50.8935Q250.50300000000001 50.27 251.24475 49.367000000000004Q251.9865 48.464 252.24450000000002 47.6685Q252.65300000000002 46.679500000000004 252.70675 45.40025Q252.7605 44.121 252.7605 43.325500000000005L254.35150000000002 43.798500000000004Q252.008 44.164 250.33100000000002 44.4435Q248.65400000000002 44.723 247.45000000000002 44.97025Q246.246 45.2175 245.32150000000001 45.5185Q244.41850000000002 45.841 243.79500000000002 46.271Q243.1715 46.701 242.83825000000002 47.260000000000005Q242.50500000000002 47.819 242.50500000000002 48.5715Q242.50500000000002 49.4315 242.935 50.08725Q243.365 50.743 244.19275000000002 51.13Q245.02050000000003 51.517 246.246 51.517Z"/><path d="M262.089 55.0V31.78H266.6685V37.4345L266.1095 36.703500000000005Q266.53950000000003 35.542500000000004 267.25975000000005 34.585750000000004Q267.98 33.629000000000005 268.9905 33.0055Q269.8505 32.425 270.89325 32.09175Q271.93600000000004 31.7585 273.0325 31.68325Q274.129 31.608 275.161 31.78V36.6175Q274.129 36.316500000000005 272.78525 36.42400000000001Q271.4415 36.5315 270.36650000000003 37.176500000000004Q269.2915 37.757000000000005 268.61424999999997 38.660000000000004Q267.937 39.563 267.6145 40.71325Q267.29200000000003 41.8635 267.29200000000003 43.1965V55.0Z"/><path d="M277.803 55.0 277.846 24.040000000000003H283.092V42.96L291.5845 31.78H298.05600000000004L289.0475 43.39L298.83000000000004 55.0H291.9715L283.092 43.82V55.0Z"/></g><circle cx="300.57" cy="52" r="3.4" fill="#a8c944"/></svg>